<svg width="431" height="936" viewBox="0 0 431 936" fill="none" xmlns="http://www.w3.org/2000/svg">
  <rect width="431" height="936" rx="42" fill="#0B1017"/>
  <rect x="2" y="2" width="427" height="932" rx="40" stroke="#2A313B" stroke-width="2"/>
  <rect x="154" y="12" width="124" height="36" rx="18" fill="#000"/>
  <text x="56" y="36" fill="#F6F7FB" font-family="Arial, sans-serif" font-size="18" font-weight="800">10:55</text>
  <text x="320" y="36" fill="#F6F7FB" font-family="Arial, sans-serif" font-size="18" font-weight="800">▮▮  ≋  63</text>

  <rect x="23" y="48" width="389" height="203" rx="28" fill="#07101C"/>
  <circle cx="264" cy="100" r="116" fill="#0F3A66" opacity="0.45"/>
  <rect x="41" y="49" width="76" height="40" rx="20" fill="#151B23"/>
  <text x="60" y="74" fill="#F8FAFC" font-family="Arial, sans-serif" font-size="14" font-weight="900">Back</text>
  <text x="41" y="149" fill="#F8FAFC" font-family="Arial, sans-serif" font-size="13" font-weight="900">DRAFT SPACE</text>
  <text x="41" y="188" fill="#FFFFFF" font-family="Arial, sans-serif" font-size="30" font-weight="900">Write it down while it is</text>
  <text x="41" y="225" fill="#FFFFFF" font-family="Arial, sans-serif" font-size="30" font-weight="900">fresh.</text>

  <rect x="23" y="268" width="389" height="632" rx="28" fill="#151B23" stroke="#273241" stroke-width="1.5"/>
  <text x="42" y="310" fill="#F8FAFC" font-family="Arial, sans-serif" font-size="23" font-weight="900">Create note</text>
  <text x="42" y="333" fill="#94A3B8" font-family="Arial, sans-serif" font-size="13" font-weight="800">New note</text>
  <rect x="326" y="294" width="68" height="38" rx="19" fill="#151B23" stroke="#273241" stroke-width="1.5"/>
  <text x="345" y="318" fill="#F8FAFC" font-family="Arial, sans-serif" font-size="13" font-weight="900">New</text>

  <rect x="42" y="358" width="352" height="40" rx="20" fill="#202A36"/>
  <text x="58" y="383" fill="#94A3B8" font-family="Arial, sans-serif" font-size="12" font-weight="900">0 title chars</text>
  <circle cx="143" cy="378" r="2" fill="#334155"/>
  <text x="154" y="383" fill="#94A3B8" font-family="Arial, sans-serif" font-size="12" font-weight="900">0 words</text>

  <text x="42" y="430" fill="#94A3B8" font-family="Arial, sans-serif" font-size="13" font-weight="900">STATUS</text>
  <rect x="42" y="439" width="171" height="46" rx="18" fill="#4A3511"/>
  <text x="98" y="467" fill="#FCD34D" font-family="Arial, sans-serif" font-size="14" font-weight="900">Pending</text>
  <rect x="223" y="439" width="171" height="46" rx="18" fill="#151B23" stroke="#273241" stroke-width="1.5"/>
  <text x="290" y="467" fill="#94A3B8" font-family="Arial, sans-serif" font-size="14" font-weight="900">Done</text>

  <text x="42" y="517" fill="#94A3B8" font-family="Arial, sans-serif" font-size="13" font-weight="900">TITLE</text>
  <rect x="42" y="528" width="352" height="58" rx="18" fill="#202A36"/>
  <text x="58" y="563" fill="#94A3B8" font-family="Arial, sans-serif" font-size="19" font-weight="900">Note title</text>

  <text x="42" y="616" fill="#94A3B8" font-family="Arial, sans-serif" font-size="13" font-weight="900">BODY</text>
  <rect x="42" y="627" width="352" height="226" rx="22" fill="#111827"/>
  <text x="58" y="663" fill="#94A3B8" font-family="Arial, sans-serif" font-size="17">Start writing...</text>

  <rect x="124" y="850" width="188" height="62" rx="31" fill="#202A36" stroke="#384252" stroke-width="1.5" opacity="0.94"/>
  <text x="164" y="884" fill="#F8FAFC" font-family="Arial, sans-serif" font-size="20">⌂</text>
  <text x="159" y="901" fill="#F8FAFC" font-family="Arial, sans-serif" font-size="10" font-weight="800">Notes</text>
  <circle cx="260" cy="880" r="30" fill="#475569"/>
  <text x="250" y="884" fill="#38BDF8" font-family="Arial, sans-serif" font-size="22">▰</text>
  <text x="244" y="901" fill="#F8FAFC" font-family="Arial, sans-serif" font-size="10" font-weight="800">Editor</text>
  <circle cx="388" cy="789" r="26" fill="#0284C7"/>
  <circle cx="388" cy="789" r="20" fill="#0EA5E9"/>
  <text x="376" y="801" fill="#FFFFFF" font-family="Arial, sans-serif" font-size="28">⚙</text>
</svg>
